<svg width="81" height="38" viewBox="0 0 81 38" fill="none" xmlns="http://www.w3.org/2000/svg">
<g filter="url(#filter0_dd_1_44963)">
<g clip-path="url(#clip0_1_44963)">
<rect x="24" y="2" width="32" height="32" rx="8" fill="white"/>
<rect x="24" y="2" width="32" height="32" rx="8" fill="url(#paint0_linear_1_44963)"/>
<path fill-rule="evenodd" clip-rule="evenodd" d="M40 4.03885C32.2895 4.03885 26.0389 10.2895 26.0389 18C26.0389 25.7106 32.2895 31.9612 40 31.9612C47.7106 31.9612 53.9612 25.7106 53.9612 18C53.9612 10.2895 47.7106 4.03885 40 4.03885ZM25.9612 18C25.9612 10.2466 32.2466 3.96118 40 3.96118C47.7535 3.96118 54.0389 10.2466 54.0389 18C54.0389 25.7535 47.7535 32.0389 40 32.0389C32.2466 32.0389 25.9612 25.7535 25.9612 18Z" fill="#D0D5DD"/>
<path fill-rule="evenodd" clip-rule="evenodd" d="M40 14.0779C37.8338 14.0779 36.0777 15.834 36.0777 18.0002C36.0777 20.1665 37.8338 21.9226 40 21.9226C42.1662 21.9226 43.9223 20.1665 43.9223 18.0002C43.9223 15.834 42.1662 14.0779 40 14.0779ZM36 18.0002C36 15.7911 37.7909 14.0002 40 14.0002C42.2091 14.0002 44 15.7911 44 18.0002C44 20.2094 42.2091 22.0002 40 22.0002C37.7909 22.0002 36 20.2094 36 18.0002Z" fill="#D0D5DD"/>
<path fill-rule="evenodd" clip-rule="evenodd" d="M40 15.3201C38.5201 15.3201 37.3204 16.5198 37.3204 17.9997C37.3204 19.4796 38.5201 20.6793 40 20.6793C41.4799 20.6793 42.6796 19.4796 42.6796 17.9997C42.6796 16.5198 41.4799 15.3201 40 15.3201ZM37.2427 17.9997C37.2427 16.4769 38.4772 15.2424 40 15.2424C41.5228 15.2424 42.7573 16.4769 42.7573 17.9997C42.7573 19.5225 41.5228 20.757 40 20.757C38.4772 20.757 37.2427 19.5225 37.2427 17.9997Z" fill="#D0D5DD"/>
<path d="M39.9612 2H40.0389V34H39.9612V2Z" fill="#D0D5DD"/>
<path d="M56 17.9609L56 18.0386L24 18.0386L24 17.9609L56 17.9609Z" fill="#D0D5DD"/>
<path d="M50.6019 2H50.6796V34H50.6019V2Z" fill="#D0D5DD"/>
<path d="M34.6407 2H34.7184V34H34.6407V2Z" fill="#D0D5DD"/>
<path d="M45.2816 2H45.3592V34H45.2816V2Z" fill="#D0D5DD"/>
<path d="M29.3204 2H29.398V34H29.3204V2Z" fill="#D0D5DD"/>
<path d="M56 28.6016L56 28.6792L24 28.6792L24 28.6016L56 28.6016Z" fill="#D0D5DD"/>
<path d="M56 12.6406L56 12.7183L24 12.7183L24 12.6406L56 12.6406Z" fill="#D0D5DD"/>
<path d="M56 23.2812L56 23.3589L24 23.3589L24 23.2812L56 23.2812Z" fill="#D0D5DD"/>
<path d="M56 7.32031L56 7.39798L24 7.39798L24 7.32031L56 7.32031Z" fill="#D0D5DD"/>
<g filter="url(#filter1_dd_1_44963)">
<circle cx="40" cy="18" r="8" fill="url(#paint1_linear_1_44963)"/>
</g>
<g filter="url(#filter2_b_1_44963)">
<path d="M24 18H56V21.2C56 25.6804 56 27.9206 55.1281 29.6319C54.3611 31.1372 53.1372 32.3611 51.6319 33.1281C49.9206 34 47.6804 34 43.2 34H36.8C32.3196 34 30.0794 34 28.3681 33.1281C26.8628 32.3611 25.6389 31.1372 24.8719 29.6319C24 27.9206 24 25.6804 24 21.2V18Z" fill="white" fill-opacity="0.2"/>
</g>
</g>
<rect x="24.15" y="2.15" width="31.7" height="31.7" rx="7.85" stroke="#D0D5DD" stroke-width="0.3"/>
</g>
<defs>
<filter id="filter0_dd_1_44963" x="21" y="0" width="38" height="38" filterUnits="userSpaceOnUse" color-interpolation-filters="sRGB">
<feFlood flood-opacity="0" result="BackgroundImageFix"/>
<feColorMatrix in="SourceAlpha" type="matrix" values="0 0 0 0 0 0 0 0 0 0 0 0 0 0 0 0 0 0 127 0" result="hardAlpha"/>
<feOffset dy="1"/>
<feGaussianBlur stdDeviation="1"/>
<feColorMatrix type="matrix" values="0 0 0 0 0.0627451 0 0 0 0 0.0941176 0 0 0 0 0.156863 0 0 0 0.06 0"/>
<feBlend mode="normal" in2="BackgroundImageFix" result="effect1_dropShadow_1_44963"/>
<feColorMatrix in="SourceAlpha" type="matrix" values="0 0 0 0 0 0 0 0 0 0 0 0 0 0 0 0 0 0 127 0" result="hardAlpha"/>
<feOffset dy="1"/>
<feGaussianBlur stdDeviation="1.5"/>
<feColorMatrix type="matrix" values="0 0 0 0 0.0627451 0 0 0 0 0.0941176 0 0 0 0 0.156863 0 0 0 0.1 0"/>
<feBlend mode="normal" in2="effect1_dropShadow_1_44963" result="effect2_dropShadow_1_44963"/>
<feBlend mode="normal" in="SourceGraphic" in2="effect2_dropShadow_1_44963" result="shape"/>
</filter>
<filter id="filter1_dd_1_44963" x="29" y="8" width="22" height="22" filterUnits="userSpaceOnUse" color-interpolation-filters="sRGB">
<feFlood flood-opacity="0" result="BackgroundImageFix"/>
<feColorMatrix in="SourceAlpha" type="matrix" values="0 0 0 0 0 0 0 0 0 0 0 0 0 0 0 0 0 0 127 0" result="hardAlpha"/>
<feOffset dy="1"/>
<feGaussianBlur stdDeviation="1"/>
<feColorMatrix type="matrix" values="0 0 0 0 0.0627451 0 0 0 0 0.0941176 0 0 0 0 0.156863 0 0 0 0.06 0"/>
<feBlend mode="normal" in2="BackgroundImageFix" result="effect1_dropShadow_1_44963"/>
<feColorMatrix in="SourceAlpha" type="matrix" values="0 0 0 0 0 0 0 0 0 0 0 0 0 0 0 0 0 0 127 0" result="hardAlpha"/>
<feOffset dy="1"/>
<feGaussianBlur stdDeviation="1.5"/>
<feColorMatrix type="matrix" values="0 0 0 0 0.0627451 0 0 0 0 0.0941176 0 0 0 0 0.156863 0 0 0 0.1 0"/>
<feBlend mode="normal" in2="effect1_dropShadow_1_44963" result="effect2_dropShadow_1_44963"/>
<feBlend mode="normal" in="SourceGraphic" in2="effect2_dropShadow_1_44963" result="shape"/>
</filter>
<filter id="filter2_b_1_44963" x="19" y="13" width="42" height="26" filterUnits="userSpaceOnUse" color-interpolation-filters="sRGB">
<feFlood flood-opacity="0" result="BackgroundImageFix"/>
<feGaussianBlur in="BackgroundImageFix" stdDeviation="2.5"/>
<feComposite in2="SourceAlpha" operator="in" result="effect1_backgroundBlur_1_44963"/>
<feBlend mode="normal" in="SourceGraphic" in2="effect1_backgroundBlur_1_44963" result="shape"/>
</filter>
<linearGradient id="paint0_linear_1_44963" x1="40" y1="2" x2="40" y2="34" gradientUnits="userSpaceOnUse">
<stop stop-color="white"/>
<stop offset="1" stop-color="#D0D5DD"/>
</linearGradient>
<linearGradient id="paint1_linear_1_44963" x1="36" y1="26" x2="44" y2="10" gradientUnits="userSpaceOnUse">
<stop stop-color="#53389E"/>
<stop offset="1" stop-color="#6941C6"/>
</linearGradient>
<clipPath id="clip0_1_44963">
<rect x="24" y="2" width="32" height="32" rx="8" fill="white"/>
</clipPath>
</defs>
</svg>
